<svg width="45" height="40" viewBox="0 0 45 40" fill="none" xmlns="http://www.w3.org/2000/svg">
<path fill-rule="evenodd" clip-rule="evenodd" d="M17.8538 27.3764L17.8523 11.3973L30.0108 19.4144L17.8538 27.3764ZM44.55 8.62843C44.55 8.62843 44.1098 4.70966 42.7612 2.98397C41.0498 0.718012 39.1317 0.707327 38.2528 0.575813C31.9556 -8.34465e-06 22.5098 0 22.5098 0H22.4902C22.4902 0 13.0444 -8.34465e-06 6.74719 0.575813C5.86688 0.707327 3.95016 0.718012 2.23735 2.98397C0.888755 4.70966 0.449996 8.62843 0.449996 8.62843C0.449996 8.62843 0 13.2314 0 17.8327V22.1478C0 26.7508 0.449996 31.352 0.449996 31.352C0.449996 31.352 0.888755 35.2708 2.23735 36.9965C3.95016 39.2625 6.19874 39.1914 7.19999 39.4277C10.8 39.8649 22.5 40 22.5 40C22.5 40 31.9556 39.9822 38.2528 39.4064C39.1317 39.2731 41.0498 39.2625 42.7612 36.9965C44.1098 35.2708 44.55 31.352 44.55 31.352C44.55 31.352 45 26.7508 45 22.1478V17.8327C45 13.2314 44.55 8.62843 44.55 8.62843Z" fill="#CE1312"/>
</svg>
