<svg width="217" height="231" viewBox="0 0 217 231" fill="none" xmlns="http://www.w3.org/2000/svg">
<path d="M167.669 0.0954791C196.645 -1.70182 208.567 22.1688 213.162 46.9014C218.026 73.0825 216.518 100.93 216.921 127.565C217.304 152.86 217.248 170.798 192.964 184.324C169.881 197.181 141.227 201.002 116.083 209.116C100.171 214.251 84.6534 221.814 69.0191 226.654C54.4442 231.166 35.3888 229.779 25.3392 217.104C8.96419 196.452 10.4219 164.078 7.31925 138.956C3.56673 108.583 -7.71835 65.0644 8.51991 37.3192C22.6974 13.0961 63.0782 11.9789 87.9258 9.54736C107.654 7.61696 127.295 6.08861 146.973 3.25773C153.85 2.26821 160.759 0.52415 167.669 0.0954791Z" fill="#A4EFFF"/>
<path d="M193 184C190.297 185.284 187.55 186.449 184.773 187.518C162.297 196.103 138.354 198.776 115.029 206.143C112.329 207.001 109.659 207.929 107.017 208.904C93.7227 213.807 81.1231 219.872 68.0826 224.403C56.553 228.297 42.9686 228.881 31.8791 222.585C29.3434 221.11 27.0081 219.243 25 217.018C26.693 219.49 28.8149 221.695 31.2461 223.533C41.9589 231.474 56.6411 232.352 69.4726 228.871C83.1974 225.042 96.1017 219.316 109.094 214.533C111.677 213.58 114.266 212.662 116.864 211.801C139.342 204.364 163.666 199.928 185.246 188.555C187.9 187.147 190.493 185.633 193 184Z" fill="#E02D53"/>
</svg>
