<svg width="227" height="11" viewBox="0 0 227 11" fill="none" xmlns="http://www.w3.org/2000/svg">
<path d="M3.69202 9.69576C4.71105 7.31147 6.76013 5.57503 9.74011 4.71563C9.03505 4.34101 8.32448 3.9664 7.61942 3.58738C8.02153 5.77776 9.03505 8.73058 11.993 9.51947C14.67 10.2334 17 8.69973 18.2945 6.9633C19.1593 5.8042 20.1397 2.47236 22.0015 4.58341C23.351 6.1083 23.5769 8.23698 25.5544 9.42251C27.7356 10.7226 30.5338 9.8456 31.966 8.17528C32.8693 7.12196 33.1227 5.93642 33.668 4.77292C33.949 4.17795 34.2629 3.31414 35.1608 3.82978C35.618 4.09421 35.7392 5.28856 35.8383 5.64114C36.4222 7.65963 37.5018 9.89849 40.5589 9.93816C44.0622 9.98223 46.304 7.36876 48.0942 5.35026C49.0912 4.22202 51.1238 2.37981 52.4953 4.2088C53.2169 5.16516 53.3766 6.36833 54.0211 7.36435C55.1503 9.11842 57.4803 9.85442 59.7112 8.83636C60.7026 8.38242 61.4518 7.62438 62.0852 6.87956C62.4653 6.43003 63.2034 4.75529 63.8313 4.60985C64.7182 4.40271 64.7017 5.93642 64.8283 6.5358C65.0487 7.59353 65.3186 8.70414 66.244 9.52829C68.4693 11.5115 72.1158 10.3789 74.0051 8.66888C75.239 7.54945 75.6576 6.11712 76.6711 4.90514C77.2605 4.20439 78.3016 3.1687 79.4308 4.0237C79.9871 4.44679 80.0091 5.36348 80.1358 5.91438C80.6206 7.95492 81.6892 10.3304 84.9115 9.97782C86.2555 9.83238 87.3682 9.16249 88.2605 8.38682C89.4448 7.35554 90.0287 5.08583 91.3947 4.34542C93.3171 3.30532 93.3557 6.35951 93.7303 7.24536C94.1985 8.35157 95.0633 9.37844 96.5009 9.77509C100.627 10.9166 103.221 7.53623 105.248 5.3723C105.893 4.68478 106.945 3.7196 108.068 4.36305C108.884 4.83021 108.603 5.91438 108.768 6.65039C109.054 7.89762 109.825 8.96857 111.434 9.33437C115.631 10.2863 117.752 6.57106 118.556 4.01047C119.25 1.79365 115.317 2.26082 114.739 4.11625C114.64 4.42916 114.529 5.10787 114.232 5.34586C113.94 5.57944 113.092 5.96727 112.558 5.43841C112.288 5.16957 112.431 3.97522 112.326 3.58298C112.04 2.51203 111.395 1.58651 110.106 1.10613C107.617 0.180618 104.846 1.34412 103.177 2.83375C102.114 3.78571 101.31 5.61469 99.8885 6.25815C97.6026 7.28943 97.3161 5.32823 96.9471 4.0281C96.4128 2.17708 95.0798 0.339277 92.3311 0.621338C90.9541 0.762368 89.8139 1.45871 88.9105 2.25641C87.7207 3.31414 87.3407 4.85666 86.1839 5.85709C84.2946 7.48775 84.1183 5.39874 83.8374 4.23524C83.6005 3.24803 83.3031 2.19471 82.4438 1.41904C80.5655 -0.277731 77.4533 0.242319 75.4979 1.57329C74.286 2.39744 73.5424 3.45957 72.8539 4.58341C72.1268 5.76013 70.1493 8.616 68.8659 6.2934C67.913 4.56137 68.7613 2.32252 66.0897 1.38378C64.0627 0.674224 62.1623 1.6394 60.934 2.91749C60.1188 3.76808 58.7086 7.09551 57.4252 5.2533C56.2465 3.56094 56.2575 1.47193 53.8889 0.427421C51.1623 -0.775744 48.254 0.779997 46.4362 2.40185C44.7617 3.89148 41.1538 9.07435 39.7161 4.72885C39.1488 3.01885 38.8899 0.881363 36.3891 0.295205C33.5964 -0.35706 31.3601 1.64822 30.3851 3.49924C30.0106 4.21761 29.5644 6.91041 28.2975 6.64598C27.4217 6.46088 26.8433 4.85225 26.5348 4.31457C25.6205 2.70154 24.5684 0.832883 22.1502 0.489122C19.4126 0.0968812 17.5508 1.85976 16.4106 3.60501C15.9645 4.28372 15.4246 5.90557 14.4882 6.25815C12.5163 6.99415 11.646 3.6006 11.4697 2.63984C11.321 1.83332 10.4066 1.2075 9.34902 1.51159C4.96443 2.77646 1.66498 5.40315 0.150204 8.94213C-0.775186 11.1105 2.84375 11.679 3.68651 9.69576H3.69202Z" fill="#0AED0A"/>
<path d="M223.308 9.78121C222.289 7.39691 220.24 5.66048 217.26 4.80107C217.965 4.42646 218.676 4.05185 219.381 3.67283C218.978 5.86321 217.965 8.81603 215.007 9.60492C212.33 10.3189 210 8.78518 208.706 7.04874C207.841 5.88965 206.86 2.55781 204.998 4.66886C203.649 6.19375 203.423 8.32242 201.446 9.50796C199.264 10.8081 196.466 9.93105 195.034 8.26072C194.131 7.2074 193.877 6.02187 193.332 4.85837C193.051 4.26339 192.737 3.39958 191.839 3.91523C191.382 4.17966 191.261 5.37401 191.162 5.72658C190.578 7.74508 189.498 9.98394 186.441 10.0236C182.938 10.0677 180.696 7.45421 178.906 5.43571C177.909 4.30747 175.876 2.46526 174.505 4.29425C173.783 5.25061 173.623 6.45377 172.979 7.4498C171.85 9.20387 169.52 9.93987 167.289 8.9218C166.297 8.46786 165.548 7.70982 164.915 6.96501C164.535 6.51547 163.797 4.84074 163.169 4.6953C162.282 4.48816 162.298 6.02187 162.172 6.62125C161.951 7.67897 161.681 8.78959 160.756 9.61374C158.531 11.597 154.884 10.4643 152.995 8.75433C151.761 7.6349 151.342 6.20256 150.329 4.99058C149.739 4.28984 148.698 3.25415 147.569 4.10914C147.013 4.53223 146.991 5.44893 146.864 5.99983C146.379 8.04037 145.311 10.4158 142.089 10.0633C140.744 9.91783 139.632 9.24794 138.739 8.47227C137.555 7.44099 136.971 5.17128 135.605 4.43087C133.683 3.39077 133.644 6.44496 133.27 7.33081C132.802 8.43701 131.937 9.46389 130.499 9.86054C126.373 11.002 123.779 7.62168 121.752 5.45775C121.107 4.77022 120.055 3.80505 118.932 4.4485C118.116 4.91566 118.397 5.99983 118.232 6.73583C117.946 7.98307 117.175 9.05402 115.566 9.41982C111.369 10.3718 109.248 6.6565 108.444 4.09592C107.75 1.8791 111.683 2.34626 112.261 4.20169C112.36 4.51461 112.471 5.19331 112.768 5.4313C113.06 5.66488 113.908 6.05272 114.442 5.52385C114.712 5.25501 114.569 4.06066 114.674 3.66842C114.96 2.59747 115.605 1.67196 116.894 1.19158C119.383 0.266066 122.154 1.42957 123.823 2.9192C124.886 3.87115 125.69 5.70014 127.112 6.34359C129.397 7.37488 129.684 5.41367 130.053 4.11355C130.587 2.26253 131.92 0.424725 134.669 0.706785C136.046 0.847816 137.186 1.54415 138.089 2.34186C139.279 3.39958 139.659 4.9421 140.816 5.94254C142.705 7.5732 142.882 5.48419 143.163 4.32069C143.399 3.33348 143.697 2.28016 144.556 1.50449C146.435 -0.192283 149.547 0.327766 151.502 1.65874C152.714 2.48289 153.458 3.54502 154.146 4.66886C154.873 5.84558 156.851 8.70144 158.134 6.37885C159.087 4.64682 158.239 2.40796 160.91 1.46923C162.937 0.759672 164.838 1.72485 166.066 3.00294C166.881 3.85353 168.291 7.18096 169.575 5.33875C170.754 3.64639 170.743 1.55737 173.111 0.512869C175.838 -0.690297 178.746 0.865445 180.564 2.48729C182.238 3.97693 185.846 9.15979 187.284 4.81429C187.851 3.1043 188.11 0.96681 190.611 0.380653C193.404 -0.271613 195.64 1.73366 196.615 3.58469C196.989 4.30306 197.436 6.99586 198.703 6.73143C199.578 6.54632 200.157 4.9377 200.465 4.40002C201.38 2.78698 202.432 0.918331 204.85 0.574569C207.587 0.182329 209.449 1.94521 210.589 3.69046C211.036 4.36917 211.575 5.99102 212.512 6.34359C214.484 7.0796 215.354 3.68605 215.53 2.72528C215.679 1.91877 216.593 1.29294 217.651 1.59704C222.036 2.86191 225.335 5.4886 226.85 9.02758C227.775 11.1959 224.156 11.7644 223.313 9.78121H223.308Z" fill="#0AED0A"/>
</svg>
