<svg width="94" height="91" viewBox="0 0 94 91" fill="none" xmlns="http://www.w3.org/2000/svg">
<path d="M9.76697 2.46582L6.63816 5.14275C4.86674 6.65946 2.67275 7.41625 0.479632 7.41312L0.479556 90.4999L93.0005 90.5C93.0005 90.5 93.0506 18.5949 93.0506 8.5001L93.0005 7.41312C90.8074 7.41622 88.6135 6.65943 86.8421 5.14275L83.7133 2.46582C80.1778 -0.561361 74.9652 -0.561361 71.4233 2.46582L68.3008 5.14275C64.7652 8.16993 59.5464 8.16993 56.0108 5.14275L52.8883 2.46582C49.3464 -0.561361 44.1338 -0.561361 40.592 2.46582L37.4695 5.14275C33.9339 8.16993 28.7151 8.16993 25.1795 5.14275L22.0569 2.46582C18.5151 -0.561361 13.3025 -0.561361 9.76697 2.46582Z" fill="white"/>
</svg>
